<mxfile host="app.diagrams.net" modified="2021-06-20T15:10:15.469Z" agent="5.0 (Windows NT 10.0; Win64; x64) AppleWebKit/537.36 (KHTML, like Gecko) Chrome/91.0.4472.114 Safari/537.36" etag="zlrWgUUBRp903ZX6p1wh" version="14.8.0" type="github">
  <diagram id="A4CnwuTcIU6kU0CQm-_J" name="Page-1">
    <mxGraphModel dx="1102" dy="659" grid="1" gridSize="10" guides="1" tooltips="1" connect="1" arrows="1" fold="1" page="1" pageScale="1" pageWidth="827" pageHeight="1169" math="0" shadow="0">
      <root>
        <mxCell id="0" />
        <mxCell id="1" parent="0" />
        <mxCell id="UcR0Mdr2ItASxifDAS5T-3" value="&lt;h1&gt;&lt;b&gt;Operators&lt;/b&gt;&lt;/h1&gt;" style="rounded=0;whiteSpace=wrap;html=1;" vertex="1" parent="1">
          <mxGeometry x="340" y="10" width="270" height="50" as="geometry" />
        </mxCell>
        <mxCell id="UcR0Mdr2ItASxifDAS5T-4" value="&lt;p style=&quot;line-height: 0%&quot;&gt;&lt;/p&gt;&lt;h1&gt;&lt;font style=&quot;font-size: 15px&quot;&gt;Assignment Operator&lt;/font&gt;&lt;br&gt;&lt;/h1&gt;&lt;div&gt;&lt;font style=&quot;font-size: 13px&quot;&gt;3 Type Of Assignment Operator&lt;/font&gt;&lt;/div&gt;&lt;div&gt;&lt;font style=&quot;font-size: 13px&quot;&gt;&lt;b&gt;&lt;u&gt;Simple assignment:&amp;nbsp;&lt;/u&gt;&lt;/b&gt;&lt;/font&gt;&lt;/div&gt;&lt;div&gt;&lt;font style=&quot;font-size: 13px&quot;&gt;Example:&lt;/font&gt;&lt;/div&gt;&lt;div&gt;&lt;font style=&quot;font-size: 13px&quot;&gt;&amp;nbsp;int x=10;&amp;nbsp;&lt;br&gt;&lt;/font&gt;&lt;/div&gt;&lt;hr&gt;&lt;b&gt;&lt;u&gt;Chained assignment:&lt;/u&gt;&lt;br&gt;int a,b,c,d;&lt;br&gt;&amp;nbsp;a=b=c=d=20;&lt;br&gt;&lt;br&gt;int b , c , d ; &lt;br&gt;int a=b=c=d=20 ; //valid&lt;/b&gt;&lt;hr&gt;&lt;b&gt;&lt;br&gt;&lt;/b&gt;&lt;p&gt;&lt;/p&gt;" style="rounded=0;whiteSpace=wrap;html=1;" vertex="1" parent="1">
          <mxGeometry y="90" width="210" height="280" as="geometry" />
        </mxCell>
        <mxCell id="UcR0Mdr2ItASxifDAS5T-5" value="&lt;h1&gt;&lt;b&gt;Operators&lt;/b&gt;&lt;/h1&gt;" style="rounded=0;whiteSpace=wrap;html=1;" vertex="1" parent="1">
          <mxGeometry x="220" y="90" width="210" height="50" as="geometry" />
        </mxCell>
        <mxCell id="UcR0Mdr2ItASxifDAS5T-6" value="&lt;h1&gt;&lt;b&gt;Operators&lt;/b&gt;&lt;/h1&gt;" style="rounded=0;whiteSpace=wrap;html=1;" vertex="1" parent="1">
          <mxGeometry x="440" y="90" width="210" height="50" as="geometry" />
        </mxCell>
        <mxCell id="UcR0Mdr2ItASxifDAS5T-7" value="&lt;h1&gt;&lt;b&gt;Operators&lt;/b&gt;&lt;/h1&gt;" style="rounded=0;whiteSpace=wrap;html=1;" vertex="1" parent="1">
          <mxGeometry x="660" y="90" width="210" height="50" as="geometry" />
        </mxCell>
      </root>
    </mxGraphModel>
  </diagram>
</mxfile>
